# xmcd
#
# Track frame offsets: 
#        182
#        9495
#        18905
#        47860
#        60917
#        76935
#        93432
#        102055
#        116167
#        133190
#        142452
#        159552
#        170320
#        182372
#        196247
#        208560
#        225212
#        237157
#        250022
#        260355
#
# Disc length: 3626 seconds
#
# Revision: 2
# Processed by: cddbd v1.5.2PL0 Copyright (c) Steve Scherf et al.
# Submitted via: ExactAudioCopy v0.99pb4
#
DISCID=fc0e2814
DTITLE=David Allan Coe - Compass Point - I've Got Something to Say
DYEAR=1995
DGENRE=Country
TTITLE0=Heads or Tails
TTITLE1=Three Time Loser
TTITLE2=Gone (Like)
TTITLE3=Honey Don't
TTITLE4=Lost
TTITLE5=Merle and Me
TTITLE6=Loving Her (Will Make You Lose Your Mind)
TTITLE7=The Fish Aren't Bitin' Today
TTITLE8=X's and O's (Kisses and Hugs)
TTITLE9=I've Got Something to Say
TTITLE10=Back to Atlanta
TTITLE11=I Could Never Give You Up (For Someone Else)
TTITLE12=Take It Easy Rider
TTITLE13=The Great Nashville Railroad Disaster
TTITLE14=Hank Williams Junior-Junior
TTITLE15=Get a Little Dirt On Your Hands
TTITLE16=If You'll Hold the Ladder (I'll Climb to the Top)
TTITLE17=This Bottle (In My Hand)
TTITLE18=Take This Job and Shove It Too
TTITLE19=Lovin' You Comes So Natural
EXTD=
EXTT0=
EXTT1=
EXTT2=
EXTT3=
EXTT4=
EXTT5=
EXTT6=
EXTT7=
EXTT8=
EXTT9=
EXTT10=
EXTT11=
EXTT12=
EXTT13=
EXTT14=
EXTT15=
EXTT16=
EXTT17=
EXTT18=
EXTT19=
PLAYORDER=
